<svg xmlns="http://www.w3.org/2000/svg" viewBox="0 0 100 100" width="100" height="100">
  <!-- Background circle -->
  <circle cx="50" cy="50" r="48" fill="#24292e"/>
  
  <!-- GitHub icon -->
  <path d="M50 10C27.9 10 10 27.9 10 50c0 17.7 11.5 32.7 27.4 38 .2.4.3.9.3 1.4v7.2c0 .5.4.9.9.9h3.4c.5 0 .9-.4.9-.9v-3.4c0-1.4.5-2.7 1.3-3.7.3-.4.9-.4 1.2 0 .8 1 1.3 2.3 1.3 3.7v3.4c0 .5.4.9.9.9h3.4c.5 0 .9-.4.9-.9v-7.2c0-.5.1-1 .3-1.4C78.5 82.7 90 67.7 90 50 90 27.9 72.1 10 50 10zm0 6c18.8 0 34 15.2 34 34s-15.2 34-34 34-34-15.2-34-34 15.2-34 34-34z" fill="#fff"/>
  
  <!-- Trending arrow -->
  <path d="M30 65l15-20 10 8 15-18" stroke="#2ecc71" stroke-width="4" fill="none" stroke-linecap="round" stroke-linejoin="round"/>
  <path d="M60 35h10v10" stroke="#2ecc71" stroke-width="4" fill="none" stroke-linecap="round" stroke-linejoin="round"/>
</svg>
